<?xml version="1.0" encoding="UTF-8" standalone="no"?>
<!-- Created with Inkscape (http://www.inkscape.org/) -->

<svg
   xmlns:dc="http://purl.org/dc/elements/1.1/"
   xmlns:cc="http://creativecommons.org/ns#"
   xmlns:rdf="http://www.w3.org/1999/02/22-rdf-syntax-ns#"
   xmlns:svg="http://www.w3.org/2000/svg"
   xmlns="http://www.w3.org/2000/svg"
   xmlns:sodipodi="http://sodipodi.sourceforge.net/DTD/sodipodi-0.dtd"
   xmlns:inkscape="http://www.inkscape.org/namespaces/inkscape"
   width="210mm"
   height="297mm"
   viewBox="0 0 210 297"
   version="1.1"
   id="svg8"
   inkscape:version="0.92.4 (5da689c313, 2019-01-14)"
   sodipodi:docname="Rooms SVG Rough Draft.svg">
  <defs
     id="defs2" />
  <sodipodi:namedview
     id="base"
     pagecolor="#ffffff"
     bordercolor="#666666"
     borderopacity="1.0"
     inkscape:pageopacity="0.0"
     inkscape:pageshadow="2"
     inkscape:zoom="3.9999998"
     inkscape:cx="556.67341"
     inkscape:cy="602.83478"
     inkscape:document-units="mm"
     inkscape:current-layer="layer2"
     showgrid="false"
     inkscape:window-width="1920"
     inkscape:window-height="1017"
     inkscape:window-x="-8"
     inkscape:window-y="-8"
     inkscape:window-maximized="1" />
  <metadata
     id="metadata5">
    <rdf:RDF>
      <cc:Work
         rdf:about="">
        <dc:format>image/svg+xml</dc:format>
        <dc:type
           rdf:resource="http://purl.org/dc/dcmitype/StillImage" />
        <dc:title />
      </cc:Work>
    </rdf:RDF>
  </metadata>
  <g
     inkscape:groupmode="layer"
     id="layer2"
     inkscape:label="Layer 2">
    <a
       id="a873"
       style="fill:#97b4d6;fill-opacity:1">
      <g
         id="g871"
         style="fill:#97b4d6;fill-opacity:1">
        <g
           id="g837">
          <g
             id="g840">
            <path
               id="path855"
               style="fill:#97b4d6;fill-opacity:1;stroke:#000000;stroke-width:0.26458332px;stroke-linecap:butt;stroke-linejoin:miter;stroke-opacity:1"
               d="m 172.33789,145.14806 h 2.81218 v -5.27916 h -0.4911 v 1.61949 h -0.69574 l -1.257,-1.60195 -1.77745,0.003 m -2.5959,5.25862 h 4.00501 l -1.40911,-5.25888 h -0.71317 c 0,0 -0.64428,1.3378 -1.19969,1.58336 l -0.68304,0.0103 m -6.88744,3.66522 h 2.19283 4.69461 v -3.66518 l -0.75241,-1e-5 c -0.5185,-0.33951 -1.14414,-1.5775 -1.14414,-1.5775 l -1.08503,0.0103 m -6.66745,5.23239 h 2.76159 l 0,-3.66518 c 0,0 -1.19889,-2.2e-4 -1.90169,-1.57923 h -2.12494 m -2.87021,5.24441 h 4.13525 l -1.26504,-5.24441 h -0.96738 c 0,0 -0.41569,1.52084 -1.90283,1.58724 m -2.43681,-1.58725 h 0.53252 c 0.55124,1.61995 1.90429,1.58725 1.90429,1.58725 v 3.65717 h -4.82278 m -1.98438,-3.54352 v 3.54352 h -5.57515 v -5.38616 h 3.35454 c 0,0 1.03358,1.70681 2.22061,1.84264 1.36731,-0.19593 2.07887,-1.7009 2.07887,-1.7009 h 2.29148 l -2.38597,5.24442 h -1.98438 m 0,-3.54352 v 3.54352 h -5.57515 v -5.38616 h 3.35454 c 0,0 1.03358,1.70681 2.22061,1.84264 m 15.89683,3.54352 1.71303,-5.23239 h -1.91766 c 0,0 -0.44511,1.59093 -1.9882,1.56721 v 3.66518"
               inkscape:connector-curvature="0"
               sodipodi:nodetypes="ccccccccccccccccccccccccccccccccccccccccccccccccccccccccc" />
          </g>
        </g>
      </g>
    </a>
    <g
       id="g4701"
       style="fill:#97b4d6;fill-opacity:1">
      <g
         id="g4676"
         style="fill:#97b4d6;fill-opacity:1">
        <path
           sodipodi:nodetypes="cccccc"
           style="fill:#97b4d6;fill-opacity:1;stroke:#000000;stroke-width:0.26458332px;stroke-linecap:butt;stroke-linejoin:miter;stroke-opacity:1"
           d="m 142.09778,126.9556 h 4.22507 v 4.44004 c 0,0 -1.35599,0.40514 -2.02572,1.75286 h -2.19934 z"
           id="path4637"
           inkscape:connector-curvature="0" />
        <a
           id="a4662"
           style="fill:#97b4d6;fill-opacity:1">
          <path
             sodipodi:nodetypes="ccccc"
             inkscape:connector-curvature="0"
             id="path4639"
             d="m 146.32285,126.9556 h 6.02754 l -2.22415,6.23424 h -1.86036 c 0,0 -0.14056,-1.03352 -1.94303,-1.7942"
             style="fill:#97b4d6;fill-opacity:1;stroke:#000000;stroke-width:0.26458332px;stroke-linecap:butt;stroke-linejoin:miter;stroke-opacity:1" />
        </a>
        <path
           sodipodi:nodetypes="ccccc"
           style="fill:#97b4d6;stroke:#000000;stroke-width:0.26458332px;stroke-linecap:butt;stroke-linejoin:miter;stroke-opacity:1;fill-opacity:1"
           d="m 152.35039,126.9556 h 3.56361 v 4.52272 c 0,0 -0.94258,0.0579 -2.1084,1.71152 h -3.67936"
           id="path4643"
           inkscape:connector-curvature="0" />
        <path
           style="fill:#97b4d6;stroke:#000000;stroke-width:0.26458332px;stroke-linecap:butt;stroke-linejoin:miter;stroke-opacity:1;fill-opacity:1"
           d="m 155.914,126.9556 h 3.45612 l 2.05052,6.22597 h -3.44786 c 0,0 -0.66145,-1.55442 -2.05878,-1.70325"
           id="path4647"
           inkscape:connector-curvature="0" />
        <a
           id="a4653"
           style="fill:#97b4d6;fill-opacity:1">
          <path
             inkscape:connector-curvature="0"
             id="path4649"
             d="m 159.37012,126.9556 h 5.74641 v 4.46484 c 0,0 -1.22369,0.091 -1.83554,1.75287 l -1.86035,0.008"
             style="fill:#97b4d6;stroke:#000000;stroke-width:0.26458332px;stroke-linecap:butt;stroke-linejoin:miter;stroke-opacity:1;fill-opacity:1"
             sodipodi:nodetypes="ccccc" />
        </a>
        <path
           sodipodi:nodetypes="ccccc"
           style="fill:#97b4d6;stroke:#000000;stroke-width:0.26458332px;stroke-linecap:butt;stroke-linejoin:miter;stroke-opacity:1;fill-opacity:1"
           d="m 165.11653,126.9556 h 6.01101 l -1.95957,6.18463 h -2.01745 c 0,0 -0.4192,-1.25027 -2.03399,-1.71979"
           id="path4656"
           inkscape:connector-curvature="0" />
        <path
           sodipodi:nodetypes="ccccccc"
           style="fill:#97b4d6;stroke:#000000;stroke-width:0.26458332px;stroke-linecap:butt;stroke-linejoin:miter;stroke-opacity:1;fill-opacity:1"
           d="m 169.16797,133.14023 3.5388,0.0165 c 0.62012,-1.3477 1.98437,-1.74458 1.98437,-1.74458 v 1.81074 h 0.50437 v -6.26731 h -4.06797"
           id="path4660"
           inkscape:connector-curvature="0" />
      </g>
      <path
         inkscape:connector-curvature="0"
         id="path4678"
         d="m 149.554,133.19217 v 1.0173 l -1.3447,1.09915 v 1.75395 h 5.44896 v -3.83531"
         style="fill:#97b4d6;stroke:#000000;stroke-width:0.26458332px;stroke-linecap:butt;stroke-linejoin:miter;stroke-opacity:1;fill-opacity:1" />
      <path
         sodipodi:nodetypes="ccccc"
         inkscape:connector-curvature="0"
         id="path4680"
         d="m 158.53426,133.19217 v 3.05189 h 3.1922 c 0,0 0.24543,-1.70931 1.54336,-2.00164 l 0.0112,-1.06911"
         style="fill:#97b4d6;stroke:#000000;stroke-width:0.26458332px;stroke-linecap:butt;stroke-linejoin:miter;stroke-opacity:1;fill-opacity:1" />
      <path
         sodipodi:nodetypes="ccccc"
         inkscape:connector-curvature="0"
         id="path4684"
         d="m 167.15052,133.14023 v 3.05925 h 3.75791 c 0,0 0.24805,-1.41387 1.80247,-2.13735 l -0.004,-0.9054"
         style="fill:#97b4d6;stroke:#000000;stroke-width:0.26458332px;stroke-linecap:butt;stroke-linejoin:miter;stroke-opacity:1;fill-opacity:1" />
    </g>
  </g>
</svg>
